<mxfile modified="2021-11-21T09:41:47.939Z" host="app.diagrams.net" agent="5.0 (Macintosh; Intel Mac OS X 10_15_7) AppleWebKit/537.36 (KHTML, like Gecko) Chrome/96.0.4664.55 Safari/537.36" etag="9NxdF6zm1Uf8gk4bbCSR" version="15.8.3" type="github">
  <diagram id="f106602c-feb2-e66a-4537-3a34d633f6aa" name="Page-1">
    <mxGraphModel dx="1089" dy="781" grid="1" gridSize="10" guides="1" tooltips="1" connect="1" arrows="1" fold="1" page="1" pageScale="1" pageWidth="1169" pageHeight="827" background="none" math="0" shadow="0">
      <root>
        <mxCell id="0" />
        <mxCell id="1" parent="0" />
        <mxCell id="14" value="&lt;b&gt;Google &lt;/b&gt;Cloud Platform" style="fillColor=#F6F6F6;strokeColor=none;shadow=0;gradientColor=none;fontSize=14;align=left;spacing=10;fontColor=#717171;9E9E9E;verticalAlign=top;spacingTop=-4;fontStyle=0;spacingLeft=40;html=1;container=0;" parent="1" vertex="1">
          <mxGeometry x="50" y="30" width="680" height="690" as="geometry" />
        </mxCell>
        <mxCell id="15" value="" style="shape=mxgraph.gcp2.google_cloud_platform;fillColor=#F6F6F6;strokeColor=none;shadow=0;gradientColor=none;" parent="1" vertex="1">
          <mxGeometry x="70" y="40" width="23" height="20" as="geometry">
            <mxPoint x="20" y="10" as="offset" />
          </mxGeometry>
        </mxCell>
        <mxCell id="UvFaciKy-KSjTiZai2yh-588" value="&lt;font color=&quot;#000000&quot;&gt;PROJECT PRODUCTION&lt;/font&gt;" style="sketch=0;points=[[0,0,0],[0.25,0,0],[0.5,0,0],[0.75,0,0],[1,0,0],[1,0.25,0],[1,0.5,0],[1,0.75,0],[1,1,0],[0.75,1,0],[0.5,1,0],[0.25,1,0],[0,1,0],[0,0.75,0],[0,0.5,0],[0,0.25,0]];rounded=1;absoluteArcSize=1;arcSize=2;html=1;strokeColor=none;gradientColor=none;shadow=0;dashed=0;fontSize=12;fontColor=#9E9E9E;align=left;verticalAlign=top;spacing=10;spacingTop=-4;fillColor=#D5E8D4;" vertex="1" parent="1">
          <mxGeometry x="114.75" y="82.08" width="425.25" height="157.92" as="geometry" />
        </mxCell>
        <mxCell id="UvFaciKy-KSjTiZai2yh-602" value="&lt;font color=&quot;#000000&quot;&gt;PROJECT DEVELOPER&lt;/font&gt;" style="sketch=0;points=[[0,0,0],[0.25,0,0],[0.5,0,0],[0.75,0,0],[1,0,0],[1,0.25,0],[1,0.5,0],[1,0.75,0],[1,1,0],[0.75,1,0],[0.5,1,0],[0.25,1,0],[0,1,0],[0,0.75,0],[0,0.5,0],[0,0.25,0]];rounded=1;absoluteArcSize=1;arcSize=2;html=1;strokeColor=none;gradientColor=none;shadow=0;dashed=0;fontSize=12;fontColor=#9E9E9E;align=left;verticalAlign=top;spacing=10;spacingTop=-4;fillColor=#D5E8D4;container=0;" vertex="1" parent="1">
          <mxGeometry x="114.75" y="530" width="425.25" height="152.45" as="geometry" />
        </mxCell>
        <mxCell id="UvFaciKy-KSjTiZai2yh-614" value="&lt;font color=&quot;#000000&quot;&gt;PROJECT APPLICATION&lt;/font&gt;" style="sketch=0;points=[[0,0,0],[0.25,0,0],[0.5,0,0],[0.75,0,0],[1,0,0],[1,0.25,0],[1,0.5,0],[1,0.75,0],[1,1,0],[0.75,1,0],[0.5,1,0],[0.25,1,0],[0,1,0],[0,0.75,0],[0,0.5,0],[0,0.25,0]];rounded=1;absoluteArcSize=1;arcSize=2;html=1;strokeColor=none;gradientColor=none;shadow=0;dashed=0;fontSize=12;fontColor=#9E9E9E;align=left;verticalAlign=top;spacing=10;spacingTop=-4;fillColor=#D5E8D4;" vertex="1" parent="1">
          <mxGeometry x="114.75" y="306.95" width="425.25" height="136.1" as="geometry" />
        </mxCell>
        <mxCell id="UvFaciKy-KSjTiZai2yh-624" value="" style="strokeColor=#dddddd;shadow=1;strokeWidth=1;rounded=1;absoluteArcSize=1;arcSize=2;fillColor=#E6E6E6;" vertex="1" parent="1">
          <mxGeometry x="130" y="110" width="380" height="90" as="geometry" />
        </mxCell>
        <mxCell id="UvFaciKy-KSjTiZai2yh-625" value="Cloud&#xa;SQL" style="sketch=0;dashed=0;connectable=0;html=1;fillColor=#5184F3;strokeColor=none;shape=mxgraph.gcp2.hexIcon;prIcon=cloud_sql;part=1;labelPosition=right;verticalLabelPosition=middle;align=left;verticalAlign=middle;spacingLeft=5;fontColor=#999999;fontSize=12;" vertex="1" parent="UvFaciKy-KSjTiZai2yh-624">
          <mxGeometry y="0.5" width="44" height="39" relative="1" as="geometry">
            <mxPoint x="5" y="-19.5" as="offset" />
          </mxGeometry>
        </mxCell>
        <mxCell id="UvFaciKy-KSjTiZai2yh-626" value="Schema PRODUCTION" style="sketch=0;points=[[0,0,0],[0.25,0,0],[0.5,0,0],[0.75,0,0],[1,0,0],[1,0.25,0],[1,0.5,0],[1,0.75,0],[1,1,0],[0.75,1,0],[0.5,1,0],[0.25,1,0],[0,1,0],[0,0.75,0],[0,0.5,0],[0,0.25,0]];rounded=1;absoluteArcSize=1;arcSize=2;html=1;strokeColor=none;gradientColor=none;shadow=0;dashed=0;fontSize=12;fontColor=#9E9E9E;align=left;verticalAlign=top;spacing=10;spacingTop=-4;fillColor=#F1F8E9;" vertex="1" parent="UvFaciKy-KSjTiZai2yh-624">
          <mxGeometry x="160" y="10" width="200" height="70" as="geometry" />
        </mxCell>
        <mxCell id="UvFaciKy-KSjTiZai2yh-627" value="Production data" style="dashed=0;shadow=1;strokeWidth=1;labelPosition=center;verticalLabelPosition=middle;align=left;verticalAlign=middle;spacingLeft=5;fontSize=12;" vertex="1" parent="UvFaciKy-KSjTiZai2yh-624">
          <mxGeometry x="250" y="40" width="100" height="34" as="geometry" />
        </mxCell>
        <mxCell id="UvFaciKy-KSjTiZai2yh-631" value="" style="strokeColor=#dddddd;shadow=1;strokeWidth=1;rounded=1;absoluteArcSize=1;arcSize=2;fillColor=#E6E6E6;" vertex="1" parent="1">
          <mxGeometry x="130" y="570" width="380" height="90" as="geometry" />
        </mxCell>
        <mxCell id="UvFaciKy-KSjTiZai2yh-632" value="Cloud&#xa;SQL" style="sketch=0;dashed=0;connectable=0;html=1;fillColor=#5184F3;strokeColor=none;shape=mxgraph.gcp2.hexIcon;prIcon=cloud_sql;part=1;labelPosition=right;verticalLabelPosition=middle;align=left;verticalAlign=middle;spacingLeft=5;fontColor=#999999;fontSize=12;" vertex="1" parent="UvFaciKy-KSjTiZai2yh-631">
          <mxGeometry y="0.5" width="44" height="39" relative="1" as="geometry">
            <mxPoint x="5" y="-19.5" as="offset" />
          </mxGeometry>
        </mxCell>
        <mxCell id="UvFaciKy-KSjTiZai2yh-633" value="Schema DEVELOP" style="sketch=0;points=[[0,0,0],[0.25,0,0],[0.5,0,0],[0.75,0,0],[1,0,0],[1,0.25,0],[1,0.5,0],[1,0.75,0],[1,1,0],[0.75,1,0],[0.5,1,0],[0.25,1,0],[0,1,0],[0,0.75,0],[0,0.5,0],[0,0.25,0]];rounded=1;absoluteArcSize=1;arcSize=2;html=1;strokeColor=none;gradientColor=none;shadow=0;dashed=0;fontSize=12;fontColor=#9E9E9E;align=left;verticalAlign=top;spacing=10;spacingTop=-4;fillColor=#F1F8E9;" vertex="1" parent="UvFaciKy-KSjTiZai2yh-631">
          <mxGeometry x="160" y="10" width="200" height="70" as="geometry" />
        </mxCell>
        <mxCell id="UvFaciKy-KSjTiZai2yh-634" value="Develop data" style="dashed=0;shadow=1;strokeWidth=1;labelPosition=center;verticalLabelPosition=middle;align=left;verticalAlign=middle;spacingLeft=5;fontSize=12;" vertex="1" parent="UvFaciKy-KSjTiZai2yh-631">
          <mxGeometry x="250" y="40" width="100" height="34" as="geometry" />
        </mxCell>
        <mxCell id="UvFaciKy-KSjTiZai2yh-645" value="" style="strokeColor=#dddddd;shadow=1;strokeWidth=1;rounded=1;absoluteArcSize=1;arcSize=2;fontColor=#000000;fillColor=#E6E6E6;" vertex="1" parent="1">
          <mxGeometry x="130" y="340" width="380" height="80" as="geometry" />
        </mxCell>
        <mxCell id="UvFaciKy-KSjTiZai2yh-646" value="App&#xa;Engine" style="sketch=0;dashed=0;connectable=0;html=1;fillColor=#5184F3;strokeColor=none;shape=mxgraph.gcp2.hexIcon;prIcon=app_engine;part=1;labelPosition=right;verticalLabelPosition=middle;align=left;verticalAlign=middle;spacingLeft=5;fontColor=#999999;fontSize=12;" vertex="1" parent="UvFaciKy-KSjTiZai2yh-645">
          <mxGeometry y="0.5" width="44" height="39" relative="1" as="geometry">
            <mxPoint x="5" y="-19.5" as="offset" />
          </mxGeometry>
        </mxCell>
        <mxCell id="UvFaciKy-KSjTiZai2yh-630" value="Application" style="dashed=0;shadow=1;strokeWidth=1;labelPosition=center;verticalLabelPosition=middle;align=left;verticalAlign=middle;spacingLeft=5;fontSize=12;" vertex="1" parent="UvFaciKy-KSjTiZai2yh-645">
          <mxGeometry x="250" y="23" width="100" height="34" as="geometry" />
        </mxCell>
        <mxCell id="UvFaciKy-KSjTiZai2yh-635" style="edgeStyle=orthogonalEdgeStyle;rounded=0;orthogonalLoop=1;jettySize=auto;html=1;exitX=0.5;exitY=1;exitDx=0;exitDy=0;entryX=0.5;entryY=0;entryDx=0;entryDy=0;fontColor=#000000;" edge="1" parent="1" source="UvFaciKy-KSjTiZai2yh-627" target="UvFaciKy-KSjTiZai2yh-630">
          <mxGeometry relative="1" as="geometry" />
        </mxCell>
        <mxCell id="UvFaciKy-KSjTiZai2yh-637" style="edgeStyle=orthogonalEdgeStyle;rounded=0;orthogonalLoop=1;jettySize=auto;html=1;exitX=0.5;exitY=1;exitDx=0;exitDy=0;entryX=0.5;entryY=0;entryDx=0;entryDy=0;fontColor=#000000;" edge="1" parent="1" source="UvFaciKy-KSjTiZai2yh-630" target="UvFaciKy-KSjTiZai2yh-634">
          <mxGeometry relative="1" as="geometry" />
        </mxCell>
        <mxCell id="UvFaciKy-KSjTiZai2yh-648" value="1. Automatically download data (for example once a day)" style="text;html=1;strokeColor=none;fillColor=none;align=center;verticalAlign=middle;whiteSpace=wrap;rounded=0;fontColor=#000000;" vertex="1" parent="1">
          <mxGeometry x="420" y="260" width="130" height="30" as="geometry" />
        </mxCell>
        <mxCell id="UvFaciKy-KSjTiZai2yh-649" value="2. Automatically transfer masked data (automatically after masking)" style="text;html=1;strokeColor=none;fillColor=none;align=center;verticalAlign=middle;whiteSpace=wrap;rounded=0;fontColor=#000000;" vertex="1" parent="1">
          <mxGeometry x="420" y="480" width="130" height="30" as="geometry" />
        </mxCell>
      </root>
    </mxGraphModel>
  </diagram>
</mxfile>
